# xmcd CD database file
# Copyright (C) 1993-1998 Ti Kan
#
# Track frame offsets:
#	150
#	15252
#	27955
#	47637
#	67670
#	90395
#	106720
#	118742
#	139822
#	155505
#	167275
#	197810
#	215922
#	236485
#
# Disc length: 3463 seconds
#
# Revision: 1
# Processed by: cddbd v1.4b41PL1 Copyright (c) Steve Scherf et al.
# Submitted via: CDValet v3.01 - Copyright (c) 1997 Greg Leichner
#
DISCID=ab0d850e
DTITLE=Preacher Boy - Crow
DYEAR=1900
DGENRE=
TTITLE0=Whisper
TTITLE1=Black Crow
TTITLE2=Ruby Lou
TTITLE3=Richmond
TTITLE4=Sophie And Frankie Machine
TTITLE5=Gorgeous
TTITLE6=The Needle Got You, Man
TTITLE7=Doctor, What Have You Done
TTITLE8=Hello, Lover
TTITLE9=Faces In The West
TTITLE10=Postcards and Ashtrays
TTITLE11=Coal Black Dirt Sky
TTITLE12=Lullaby
TTITLE13=The Mortuary Band
EXTD=
EXTT0=
EXTT1=
EXTT2=
EXTT3=
EXTT4=
EXTT5=
EXTT6=
EXTT7=
EXTT8=
EXTT9=
EXTT10=
EXTT11=
EXTT12=
EXTT13=
PLAYORDER=
